<svg id="Layer_1" data-name="Layer 1" xmlns="http://www.w3.org/2000/svg" viewBox="0 0 71.68 56.42"><defs><style>.cls-1{fill:#f2654e;}.cls-2{fill:#ffd470;}.cls-3{fill:#00d7b2;}.cls-4{fill:#4730a5;}</style></defs><title>1</title><path class="cls-1" d="M983.26,1014.47a13,13,0,1,1-6.08-24.41,13.16,13.16,0,0,1,4,.62,28.26,28.26,0,0,0,2.09,23.79Z" transform="translate(-964.22 -972.14)"/><path class="cls-2" d="M990.15,1003a13,13,0,0,1-6.89,11.45,28.26,28.26,0,0,1-2.09-23.79A13,13,0,0,1,990.15,1003Z" transform="translate(-964.22 -972.14)"/><path class="cls-3" d="M1035.9,1000.35a28.22,28.22,0,0,1-52.64,14.12,13,13,0,0,0-2.09-23.79,28.22,28.22,0,0,1,54.73,9.67Z" transform="translate(-964.22 -972.14)"/><path class="cls-4" d="M1027.52,1001.1l-17.46,1.9-5.57,16.66-7.82-33.28Z" transform="translate(-964.22 -972.14)"/></svg>